<svg version="1.1" id="Layer_1" xmlns="http://www.w3.org/2000/svg" xmlns:xlink="http://www.w3.org/1999/xlink" x="0px" y="0px"
	 width="100%" viewBox="0 0 69 78" enable-background="new 0 0 69 78" xml:space="preserve">
<path fill="#FFFFFF" opacity="1.000000" stroke="none" 
	d="
M42.000000,79.000000 
	C28.000000,79.000000 14.500000,79.000000 1.000000,79.000000 
	C1.000000,53.000000 1.000000,27.000000 1.000000,1.000000 
	C24.000000,1.000000 47.000000,1.000000 70.000000,1.000000 
	C70.000000,27.000000 70.000000,53.000000 70.000000,79.000000 
	C60.833332,79.000000 51.666668,79.000000 42.000000,79.000000 
M37.115898,21.860712 
	C37.133118,23.909494 37.150333,25.958275 37.028893,28.887197 
	C36.948364,37.128548 36.948418,37.131493 45.059521,36.989140 
	C45.705082,36.977814 46.349243,36.886757 47.819447,36.976337 
	C49.212273,36.929962 50.605099,36.883587 52.701328,36.965080 
	C54.410625,34.645222 56.119926,32.325363 57.971874,29.137041 
	C58.858952,20.417835 55.842979,17.345798 50.107731,16.316185 
	C46.918396,15.743623 43.347569,17.296043 39.388069,18.131805 
	C38.798069,19.132381 38.208065,20.132957 37.115898,21.860712 
M22.263123,40.039551 
	C20.492695,40.645382 18.722267,41.251213 16.191509,41.981552 
	C12.352439,45.460011 11.572638,56.312115 14.940425,59.392281 
	C18.158230,62.335266 29.016649,61.483341 32.737347,57.684860 
	C34.689480,54.856312 34.309486,52.301174 32.185833,49.309055 
	C32.727875,47.087513 34.186111,44.521992 33.522060,42.753262 
	C32.990822,41.338276 29.946657,40.627178 27.890501,40.103512 
	C26.369810,39.716221 24.644369,40.132889 22.263123,40.039551 
M37.023548,52.767323 
	C37.665440,54.545185 38.307331,56.323051 39.042732,58.883297 
	C41.899929,59.588055 44.722595,60.569092 47.622574,60.931602 
	C51.778130,61.451057 55.932972,60.779442 57.242867,56.095825 
	C58.505840,51.579979 59.523438,46.719429 54.748260,42.280788 
	C52.829037,41.908813 50.909817,41.536839 48.081551,41.035175 
	C35.952015,41.255550 36.765781,38.512352 37.023548,52.767323 
M33.922894,23.077780 
	C31.712713,16.054005 25.171637,15.129839 19.990671,16.208582 
	C14.839273,17.281170 12.473379,18.714857 12.997366,27.588560 
	C13.036380,28.249275 12.987990,28.914660 13.004562,29.577267 
	C13.142231,35.081467 15.127417,36.879353 21.920670,36.968895 
	C34.415829,37.086201 34.416088,37.086189 33.910442,24.373669 
	C33.903900,24.209146 33.854092,24.046343 33.922894,23.077780 
z"/>
<path fill="#F7463F" opacity="1.000000" stroke="none" 
	d="
M21.007858,36.834068 
	C15.127417,36.879353 13.142231,35.081467 13.004562,29.577267 
	C12.987990,28.914660 13.036380,28.249275 12.997366,27.588560 
	C12.473379,18.714857 14.839273,17.281170 19.990671,16.208582 
	C25.171637,15.129839 31.712713,16.054005 33.452587,23.508488 
	C31.385298,24.294916 29.788317,24.650633 28.099545,24.610626 
	C26.364304,20.194962 22.914551,22.421623 20.286119,22.226604 
	C19.615158,22.176825 17.978811,24.476248 18.182055,25.383638 
	C18.709265,27.737398 20.013462,29.917124 21.005104,32.555370 
	C21.004402,34.240974 21.006130,35.537521 21.007858,36.834068 
z"/>
<path fill="#FFC630" opacity="1.000000" stroke="none" 
	d="
M55.108185,42.952042 
	C59.523438,46.719429 58.505840,51.579979 57.242867,56.095825 
	C55.932972,60.779442 51.778130,61.451057 47.622574,60.931602 
	C44.722595,60.569092 41.899929,59.588055 39.201366,58.196659 
	C40.944046,56.993191 42.528091,56.476360 44.543533,55.974758 
	C47.376461,55.409901 51.111523,57.715923 51.806988,53.545818 
	C52.204006,51.165230 51.236019,48.556992 51.183235,45.915604 
	C52.691944,44.837311 53.900066,43.894676 55.108185,42.952042 
z"/>
<path fill="#3CC568" opacity="1.000000" stroke="none" 
	d="
M32.112839,58.044968 
	C29.016649,61.483341 18.158230,62.335266 14.940425,59.392281 
	C11.572638,56.312115 12.352439,45.460011 16.610128,42.264091 
	C17.697306,43.737389 18.365864,44.928150 18.858000,46.477379 
	C18.928291,49.768726 19.175007,52.701611 19.421722,55.634495 
	C22.265760,55.385666 25.109800,55.136837 28.128735,55.164932 
	C29.573366,56.309559 30.843103,57.177265 32.112839,58.044968 
z"/>
<path fill="#2283ED" opacity="1.000000" stroke="none" 
	d="
M39.948677,17.890759 
	C43.347569,17.296043 46.918396,15.743623 50.107731,16.316185 
	C55.842979,17.345798 58.858952,20.417835 57.536926,29.563370 
	C55.455177,29.660746 53.808369,29.331791 52.092087,28.576576 
	C52.772339,23.337038 50.883568,21.161030 45.915234,21.977346 
	C45.299740,22.078474 44.636711,21.890306 43.938515,21.513908 
	C42.570438,20.091337 41.259560,18.991049 39.948677,17.890759 
z"/>
<path fill="#F43E36" opacity="1.000000" stroke="none" 
	d="
M28.191334,25.006350 
	C29.788317,24.650633 31.385298,24.294916 33.403381,23.910969 
	C33.854092,24.046343 33.903900,24.209146 33.910442,24.373669 
	C34.416088,37.086189 34.415829,37.086201 21.464264,36.901482 
	C21.006130,35.537521 21.004402,34.240974 21.447731,32.487980 
	C23.891817,32.031532 25.890848,32.031532 27.839029,32.031532 
	C27.982807,29.164518 28.087070,27.085434 28.191334,25.006350 
z"/>
<path fill="#FFB721" opacity="1.000000" stroke="none" 
	d="
M37.160648,51.991352 
	C36.765781,38.512352 35.952015,41.255550 48.496506,41.441490 
	C48.605488,43.177788 48.299511,44.507771 47.561409,45.902061 
	C45.520103,46.058937 43.910923,46.151497 42.202049,46.249794 
	C42.064781,48.384422 41.948788,50.188259 41.443253,51.994545 
	C39.756023,51.995110 38.458336,51.993229 37.160648,51.991352 
z"/>
<path fill="#2DB45E" opacity="1.000000" stroke="none" 
	d="
M23.010145,40.191383 
	C24.644369,40.132889 26.369810,39.716221 27.890501,40.103512 
	C29.946657,40.627178 32.990822,41.338276 33.522060,42.753262 
	C34.186111,44.521992 32.727875,47.087513 31.732243,49.652527 
	C30.907471,49.994419 30.536287,49.992847 30.002287,49.664192 
	C27.895653,48.170795 25.951838,47.004478 23.999035,45.474796 
	C23.663412,43.471416 23.336779,41.831402 23.010145,40.191383 
z"/>
<path fill="#1A6CD2" opacity="1.000000" stroke="none" 
	d="
M46.994057,36.832756 
	C46.349243,36.886757 45.705082,36.977814 45.059521,36.989140 
	C36.948418,37.131493 36.948364,37.128548 37.439388,28.487528 
	C39.177704,28.393358 40.505520,28.698858 41.903824,29.403015 
	C43.314529,30.590656 44.654743,31.379642 46.000862,32.514553 
	C46.335865,34.184570 46.664963,35.508663 46.994057,36.832756 
z"/>
<path fill="#207CE6" opacity="1.000000" stroke="none" 
	d="
M52.161564,29.002838 
	C53.808369,29.331791 55.455177,29.660746 57.465603,29.997604 
	C56.119926,32.325363 54.410625,34.645222 52.350349,36.531651 
	C51.654598,34.690933 51.309830,33.283642 51.086372,31.580471 
	C51.525646,30.524006 51.843605,29.763422 52.161564,29.002838 
z"/>
<path fill="#38C064" opacity="1.000000" stroke="none" 
	d="
M30.165106,49.991272 
	C30.536287,49.992847 30.907471,49.994419 31.557034,49.993767 
	C34.309486,52.301174 34.689480,54.856312 32.425095,57.864914 
	C30.843103,57.177265 29.573366,56.309559 28.150129,54.811768 
	C28.719454,52.784874 29.442280,51.388073 30.165106,49.991272 
z"/>
<path fill="#35BD63" opacity="1.000000" stroke="none" 
	d="
M22.636635,40.115467 
	C23.336779,41.831402 23.663412,43.471416 23.589199,45.547096 
	C21.803709,46.028137 20.419065,46.073524 19.034422,46.118912 
	C18.365864,44.928150 17.697306,43.737389 16.990294,42.201836 
	C18.722267,41.251213 20.492695,40.645382 22.636635,40.115467 
z"/>
<path fill="#FFC029" opacity="1.000000" stroke="none" 
	d="
M37.092098,52.379337 
	C38.458336,51.993229 39.756023,51.995110 41.520401,52.322807 
	C42.695438,53.752262 43.403790,54.855896 44.112137,55.959534 
	C42.528091,56.476360 40.944046,56.993191 39.154610,57.805466 
	C38.307331,56.323051 37.665440,54.545185 37.092098,52.379337 
z"/>
<path fill="#1D73DA" opacity="1.000000" stroke="none" 
	d="
M41.833340,29.004360 
	C40.505520,28.698858 39.177704,28.393358 37.508720,28.047459 
	C37.150333,25.958275 37.133118,23.909494 37.528091,21.863415 
	C39.321999,22.585663 40.703712,23.305208 42.048790,24.439373 
	C41.952557,26.237448 41.892948,27.620903 41.833340,29.004360 
z"/>
<path fill="#1D72D9" opacity="1.000000" stroke="none" 
	d="
M50.965065,31.876354 
	C51.309830,33.283642 51.654598,34.690933 51.998646,36.467720 
	C50.605099,36.883587 49.212273,36.929962 47.406754,36.904549 
	C46.664963,35.508663 46.335865,34.184570 46.410450,32.442253 
	C48.197777,31.974806 49.581421,31.925581 50.965065,31.876354 
z"/>
<path fill="#FFBE28" opacity="1.000000" stroke="none" 
	d="
M47.993530,45.837749 
	C48.299511,44.507771 48.605488,43.177788 48.951027,41.506336 
	C50.909817,41.536839 52.829037,41.908813 54.928223,42.616417 
	C53.900066,43.894676 52.691944,44.837311 50.820877,45.895638 
	C49.436466,45.953468 48.714996,45.895607 47.993530,45.837749 
z"/>
<path fill="#207CE6" opacity="1.000000" stroke="none" 
	d="
M42.085423,24.024755 
	C40.703712,23.305208 39.321999,22.585663 37.779175,21.499825 
	C38.208065,20.132957 38.798069,19.132381 39.668373,18.011284 
	C41.259560,18.991049 42.570438,20.091337 43.659775,21.649307 
	C42.987289,22.746246 42.536358,23.385500 42.085423,24.024755 
z"/>
<path fill="#FFFFFF" opacity="1.000000" stroke="none" 
	d="
M28.099545,24.610626 
	C28.087070,27.085434 27.982807,29.164518 27.839029,32.031532 
	C25.890848,32.031532 23.891817,32.031532 21.450159,32.098923 
	C20.013462,29.917124 18.709265,27.737398 18.182055,25.383638 
	C17.978811,24.476248 19.615158,22.176825 20.286119,22.226604 
	C22.914551,22.421623 26.364304,20.194962 28.099545,24.610626 
z"/>
<path fill="#FFFFFF" opacity="1.000000" stroke="none" 
	d="
M47.561409,45.902061 
	C48.714996,45.895607 49.436466,45.953468 50.520290,46.031292 
	C51.236019,48.556992 52.204006,51.165230 51.806988,53.545818 
	C51.111523,57.715923 47.376461,55.409901 44.543533,55.974754 
	C43.403790,54.855896 42.695438,53.752262 41.909943,52.320362 
	C41.948788,50.188259 42.064781,48.384422 42.202049,46.249794 
	C43.910923,46.151497 45.520103,46.058937 47.561409,45.902061 
z"/>
<path fill="#FFFFFF" opacity="1.000000" stroke="none" 
	d="
M18.858000,46.477379 
	C20.419065,46.073524 21.803709,46.028137 23.598186,45.910454 
	C25.951838,47.004478 27.895653,48.170795 30.002287,49.664192 
	C29.442280,51.388073 28.719454,52.784874 27.975233,54.534843 
	C25.109800,55.136837 22.265760,55.385666 19.421722,55.634495 
	C19.175007,52.701611 18.928291,49.768726 18.858000,46.477379 
z"/>
<path fill="#FFFFFF" opacity="1.000000" stroke="none" 
	d="
M42.048790,24.439373 
	C42.536358,23.385500 42.987289,22.746246 43.716965,21.971592 
	C44.636711,21.890306 45.299740,22.078474 45.915234,21.977346 
	C50.883568,21.161030 52.772339,23.337038 52.092087,28.576576 
	C51.843605,29.763422 51.525646,30.524006 51.086372,31.580471 
	C49.581421,31.925581 48.197777,31.974806 46.404549,32.096329 
	C44.654743,31.379642 43.314529,30.590656 41.903824,29.403015 
	C41.892948,27.620903 41.952557,26.237448 42.048790,24.439373 
z"/>
</svg>